<svg width="37" height="37" viewBox="0 0 37 37" fill="none" xmlns="http://www.w3.org/2000/svg">
<path d="M25.9769 0H11.0231C8.1003 0.00222716 5.29782 1.16425 3.23106 3.23092C1.16431 5.29758 0.00222726 8.09993 0 11.0226V25.9757C0.00178182 28.8987 1.16366 31.7015 3.23047 33.7685C5.29727 35.8355 8.10001 36.9978 11.0231 37H25.9769C28.8998 36.9973 31.7023 35.8349 33.769 33.768C35.8357 31.7011 36.9978 28.8985 37 25.9757V11.0226C36.9987 8.09966 35.8369 5.29679 33.7699 3.22993C31.703 1.16308 28.9 0.00133703 25.9769 0ZM33.2796 25.9757C33.2792 27.9123 32.5097 29.7694 31.1402 31.1388C29.7708 32.5082 27.9135 33.2777 25.9769 33.2781H11.0231C10.0642 33.2781 9.11466 33.0892 8.22874 32.7222C7.34282 32.3552 6.53787 31.8173 5.85988 31.1392C5.18189 30.4611 4.64413 29.656 4.27731 28.7701C3.9105 27.8841 3.72181 26.9346 3.72203 25.9757V11.0226C3.72181 10.0638 3.91051 9.11436 4.27735 8.22849C4.64418 7.34262 5.18197 6.5377 5.85998 5.85972C6.538 5.18173 7.34295 4.64397 8.22886 4.27715C9.11477 3.91033 10.0643 3.72164 11.0231 3.72186H25.9769C27.9131 3.72231 29.7699 4.49164 31.139 5.8607C32.5082 7.22977 33.2775 9.08649 33.278 11.0226L33.2796 25.9757Z" fill="#FBD108"/>
<path d="M18.3685 9.18485C13.2 9.18485 9 13.404 9 18.5924C9 23.7808 13.2016 28 18.3685 28C23.5353 28 27.7369 23.7808 27.7369 18.5924C27.7369 13.404 23.5369 9.18485 18.3685 9.18485ZM18.3685 24.3398C16.8505 24.3401 15.3946 23.7347 14.3211 22.657C13.2476 21.5794 12.6443 20.1176 12.6441 18.5932C12.6439 17.0689 13.2467 15.607 14.3199 14.529C15.3931 13.451 16.8488 12.8452 18.3668 12.845C19.8848 12.8448 21.3407 13.4501 22.4142 14.5278C23.4877 15.6055 24.091 17.0673 24.0912 18.5916C24.0914 20.1159 23.4886 21.5779 22.4154 22.6559C21.3422 23.7339 19.8864 24.3396 18.3685 24.3398ZM27.7567 7C28.2006 7.00033 28.6344 7.13278 29.0033 7.38061C29.3722 7.62844 29.6597 7.98053 29.8294 8.39239C29.9991 8.80424 30.0435 9.25737 29.9568 9.69451C29.8701 10.1317 29.6563 10.5332 29.3425 10.8484C29.0286 11.1635 28.6287 11.3782 28.1934 11.4652C27.7581 11.5523 27.3069 11.5078 26.8967 11.3373C26.4866 11.1669 26.1359 10.8782 25.8891 10.5078C25.6423 10.1373 25.5104 9.70168 25.5101 9.25596C25.5101 8.01221 26.3501 7 27.7567 7Z" fill="#FBD108"/>
</svg>
