<svg width="37" height="37" viewBox="0 0 37 37" fill="none" xmlns="http://www.w3.org/2000/svg">
<path fill-rule="evenodd" clip-rule="evenodd" d="M0 2.65045C0 1.18704 1.22412 0 2.73423 0H34.2658C35.7758 0 37 1.18704 37 2.65045V34.3496C37 35.8135 35.7758 37 34.2658 37H2.73423C1.22412 37 0 35.8135 0 34.3496V2.65045ZM11.6492 30V13.1317H6.31531V30H11.6492ZM8.98224 10.8286C10.8423 10.8286 12 9.53329 12 7.91454C11.9653 6.25936 10.8423 5 9.01752 5C7.19296 5 6 6.25936 6 7.91454C6 9.53329 7.15747 10.8286 8.94747 10.8286H8.98224ZM20.5692 30H15C15 30 15.0732 14.9484 15.0002 13.3898H20.5693V15.7415C20.5568 15.7607 20.5444 15.7798 20.5321 15.7987H20.5693V15.7415C21.3094 14.6096 22.6341 13 25.5883 13C29.2524 13 32 15.374 32 20.4759V30H26.4313V21.1139C26.4313 18.881 25.6251 17.3578 23.6099 17.3578C22.0714 17.3578 21.155 18.385 20.7524 19.3769C20.6054 19.7318 20.5692 20.2277 20.5692 20.7241V30Z" fill="#FBD108"/>
</svg>
